<!DOCTYPE svg PUBLIC "-//W3C//DTD SVG 1.1//EN" "http://www.w3.org/Graphics/SVG/1.1/DTD/svg11.dtd">
<!-- Uploaded to: SVG Repo, www.svgrepo.com, Transformed by: SVG Repo Mixer Tools -->
<svg fill="FD8402" width="800px" height="800px" viewBox="0 0 24 24" xmlns="http://www.w3.org/2000/svg">
<g id="SVGRepo_bgCarrier" stroke-width="0"/>
<g id="SVGRepo_tracerCarrier" stroke-linecap="round" stroke-linejoin="round"/>
<g id="SVGRepo_iconCarrier"> <g data-name="Layer 2"> <g data-name="email"> <rect width="24" height="24" opacity="0"/> <path d="M19 4H5a3 3 0 0 0-3 3v10a3 3 0 0 0 3 3h14a3 3 0 0 0 3-3V7a3 3 0 0 0-3-3zm-.67 2L12 10.75 5.67 6zM19 18H5a1 1 0 0 1-1-1V7.25l7.4 5.55a1 1 0 0 0 .6.2 1 1 0 0 0 .6-.2L20 7.25V17a1 1 0 0 1-1 1z"/> </g> </g> </g>
</svg>